#N canvas 1093 513 450 300 10;
#X obj 122 86 metro;
#X floatatom 159 45 5 0 0 0 - - -;
#X obj 122 49 tgl 15 0 empty empty empty 17 7 0 10 -262144 -1 -1 0
1;
#X obj 122 139 float;
#X obj 122 197 mod 16;
#X floatatom 122 236 5 0 0 0 - - -;
#X obj 190 139 + 1;
#X floatatom 191 197 5 0 0 0 - - -;
#X connect 0 0 3 0;
#X connect 1 0 0 1;
#X connect 2 0 0 0;
#X connect 3 0 4 0;
#X connect 3 0 7 0;
#X connect 3 0 6 0;
#X connect 4 0 5 0;
#X connect 6 0 3 1;
